<?xml version="1.0" encoding="iso-8859-1"?>
<!-- Generator: Adobe Illustrator 19.0.0, SVG Export Plug-In . SVG Version: 6.00 Build 0)  -->
<svg version="1.1" id="Layer_1" xmlns="http://www.w3.org/2000/svg" xmlns:xlink="http://www.w3.org/1999/xlink" x="0px" y="0px"
	 viewBox="0 0 512 512" style="enable-background:new 0 0 512 512;" xml:space="preserve">
<path style="fill:#9ED04D;" d="M256,0C131.605,0,30.762,100.843,30.762,225.238S202.878,512,256,512
	s225.238-162.367,225.238-286.762S380.395,0,256,0z"/>
<path style="fill:#86B143;" d="M256,0v512c53.122,0,225.238-162.367,225.238-286.762S380.395,0,256,0z"/>
<path style="fill:#444242;" d="M176.627,180.893C141.2,158.669,93.5,170.911,93.5,170.911s9.738,48.273,45.165,70.497
	c35.427,22.223,83.127,9.982,83.127,9.982S212.053,203.116,176.627,180.893z"/>
<path style="fill:#3A3839;" d="M335.374,180.893c-35.427,22.223-45.165,70.497-45.165,70.497s47.701,12.241,83.127-9.982
	c35.427-22.224,45.165-70.497,45.165-70.497S370.8,158.669,335.374,180.893z"/>
<rect x="226.326" y="368.774" style="fill:#444242;" width="59.347" height="35.718"/>
<rect x="256" y="368.774" style="fill:#3A3839;" width="29.673" height="35.718"/>
<g>
</g>
<g>
</g>
<g>
</g>
<g>
</g>
<g>
</g>
<g>
</g>
<g>
</g>
<g>
</g>
<g>
</g>
<g>
</g>
<g>
</g>
<g>
</g>
<g>
</g>
<g>
</g>
<g>
</g>
</svg>
