<?xml version="1.0" encoding="UTF-8" standalone="no"?>
<!-- Generator: Adobe Illustrator 18.1.1, SVG Export Plug-In . SVG Version: 6.00 Build 0)  -->

<svg
   xmlns:dc="http://purl.org/dc/elements/1.1/"
   xmlns:cc="http://creativecommons.org/ns#"
   xmlns:rdf="http://www.w3.org/1999/02/22-rdf-syntax-ns#"
   xmlns:svg="http://www.w3.org/2000/svg"
   xmlns="http://www.w3.org/2000/svg"
   xmlns:sodipodi="http://sodipodi.sourceforge.net/DTD/sodipodi-0.dtd"
   xmlns:inkscape="http://www.inkscape.org/namespaces/inkscape"
   version="1.1"
   id="Capa_1"
   x="0px"
   y="0px"
   viewBox="0 0 612.001 612.001"
   style="enable-background:new 0 0 612.001 612.001;"
   xml:space="preserve"
   sodipodi:docname="alien-white-quadrado.svg"
   inkscape:version="0.92.4 5da689c313, 2019-01-14"
   inkscape:export-filename="/home/tamer/Documentos/AgriConnected/Agriconnected/aliens/static/images/alien-white.png"
   inkscape:export-xdpi="96"
   inkscape:export-ydpi="96"><metadata
   id="metadata3831"><rdf:RDF><cc:Work
       rdf:about=""><dc:format>image/svg+xml</dc:format><dc:type
         rdf:resource="http://purl.org/dc/dcmitype/StillImage" /><dc:title></dc:title></cc:Work></rdf:RDF></metadata><defs
   id="defs3829" /><sodipodi:namedview
   pagecolor="#ffffff"
   bordercolor="#666666"
   borderopacity="1"
   objecttolerance="10"
   gridtolerance="10"
   guidetolerance="10"
   inkscape:pageopacity="0"
   inkscape:pageshadow="2"
   inkscape:window-width="1600"
   inkscape:window-height="848"
   id="namedview3827"
   showgrid="false"
   inkscape:zoom="0.7498555"
   inkscape:cx="382.7533"
   inkscape:cy="249.55885"
   inkscape:window-x="1600"
   inkscape:window-y="27"
   inkscape:window-maximized="1"
   inkscape:current-layer="Capa_1" />
<g
   id="g3794"
   style="fill:#ffffff"
   transform="matrix(1.2706962,0,0,1,-82.833167,0)">
	<path
   d="M 64.601,236.822 C 64.601,394.256 192.786,612 306.001,612 412.582,612 547.4,394.256 547.4,236.822 547.4,79.388 439.322,0 306,0 172.678,0 64.601,79.388 64.601,236.822 Z m 304.12,116.415 c 29.475,-29.475 70.598,-40.195 108.552,-32.173 8.021,37.954 -2.698,79.077 -32.173,108.552 -29.475,29.475 -70.598,40.195 -108.552,32.173 -8.022,-37.955 2.698,-79.078 32.173,-108.552 z M 134.727,321.063 c 37.954,-8.021 79.077,2.698 108.552,32.173 29.475,29.475 40.195,70.598 32.173,108.552 -37.954,8.021 -79.077,-2.698 -108.552,-32.173 -29.475,-29.476 -40.194,-70.598 -32.173,-108.552 z"
   id="path3792"
   style="fill:#ffffff"
   inkscape:connector-curvature="0" />
</g>
<g
   id="g3796">
</g>
<g
   id="g3798">
</g>
<g
   id="g3800">
</g>
<g
   id="g3802">
</g>
<g
   id="g3804">
</g>
<g
   id="g3806">
</g>
<g
   id="g3808">
</g>
<g
   id="g3810">
</g>
<g
   id="g3812">
</g>
<g
   id="g3814">
</g>
<g
   id="g3816">
</g>
<g
   id="g3818">
</g>
<g
   id="g3820">
</g>
<g
   id="g3822">
</g>
<g
   id="g3824">
</g>
</svg>